#!OML:ASF G:\JayActor3\Patient Classification 1\Patient 1\Session 6\male.ASF
:FULLY-SPECIFIED
:DEGREES
4710
root -1.74162 16.5176 -3.06028 518.275 -76.0718 -518.705
lowerback -0.841026 8.01964 0.793163
upperback 0.162015 10.6895 -1.53491
thorax 1.06803 5.35069 -1.77955
lowerneck -2.23538 -5.17175 -3.84255
upperneck 32.898 -10.3756 5.74348
head 11.5992 -5.12759 1.60204
rclavicle 7.11649e-014 1.59028e-015
rhumerus 17.9054 73.7765 -92.4434
rradius 29.8273
rwrist -5.10647
rhand -21.9451 -8.10859
rfingers 7.12502
rthumb 4.46182 -38.0416
lclavicle 7.11649e-014 1.59028e-015
lhumerus -28.8963 -1.36449 73.5475
lradius 19.7548
lwrist 22.9657
lhand -18.982 7.05556
lfingers 7.12502
lthumb 7.32255 36.9088
rfemur -13.9972 4.14473 17.489
rtibia 29.1709
rfoot -15.6712 -15.1126
rtoes 2.24033
lfemur 5.0548 -0.628908 -9.6709
ltibia 12.2647
lfoot -25.9726 33.7476
ltoes 11.6205
4711
root -1.72467 16.5262 -3.06785 517.063 -76.9209 -517.207
lowerback -0.527155 8.12073 0.938745
upperback 0.306155 10.8248 -1.38983
thorax 1.04655 5.4202 -1.74203
lowerneck -2.2069 -5.55947 -3.99809
upperneck 32.3758 -10.9334 6.12744
head 11.4553 -5.34396 1.71269
rclavicle -1.41833e-013 -2.3059e-014
rhumerus 20.1517 74.9037 -91.5242
rradius 31.5936
rwrist -7.25231
rhand -21.0832 -7.29604
rfingers 7.12502
rthumb 5.29397 -37.2099
lclavicle -1.41833e-013 -2.3059e-014
lhumerus -28.7865 -1.71835 73.7774
lradius 20.4101
lwrist 23.7221
lhand -18.9453 7.26337
lfingers 7.12502
lthumb 7.35793 37.1154
rfemur -14.0939 3.93723 17.48
rtibia 29.0692
rfoot -16.0303 -15.5721
rtoes 2.67487
lfemur 4.25821 -0.560242 -9.49731
ltibia 12.5581
lfoot -25.0632 33.2708
ltoes 10.8856
4712
root -1.70763 16.5355 -3.07576 515.765 -77.8019 -515.598
lowerback -0.247822 8.19543 1.04219
upperback 0.454052 10.9251 -1.25541
thorax 1.04104 5.47176 -1.68928
lowerneck -2.17082 -5.93141 -4.14459
upperneck 31.8354 -11.4755 6.54248
head 11.3085 -5.55217 1.83376
rclavicle -3.2551e-014 -3.18055e-015
rhumerus 23.2643 76.09 -89.6064
rradius 33.6416
rwrist -9.98903
rhand -19.2298 -6.94514
rfingers 7.12502
rthumb 7.08336 -36.8066
lclavicle -3.2551e-014 -3.18055e-015
lhumerus -28.7056 -1.97005 73.9781
lradius 21.1091
lwrist 24.4981
lhand -18.8981 7.51081
lfingers 7.12502
lthumb 7.40355 37.3613
rfemur -14.2236 3.75569 17.4352
rtibia 28.9823
rfoot -16.4318 -16.0623
rtoes 3.13998
lfemur 3.44208 -0.452472 -9.35864
ltibia 12.8017
lfoot -24.0777 32.7614
ltoes 10.0698
4713
root -1.69091 16.5452 -3.08366 514.312 -78.7149 -513.823
lowerback 0.00611474 8.24355 1.12215
upperback 0.609315 10.9899 -1.13484
thorax 1.05409 5.5053 -1.63478
lowerneck -2.13136 -6.28566 -4.28598
upperneck 31.2912 -12.0018 6.99171
head 11.1658 -5.75236 1.96664
rclavicle 4.57205e-015 -2.54444e-014
rhumerus 27.3949 77.2747 -86.5604
rradius 35.9133
rwrist -13.1413
rhand -16.7261 -7.10816
rfingers 7.12502
rthumb 9.49959 -36.874
lclavicle 4.57205e-015 -2.54444e-014
lhumerus -28.6576 -2.13286 74.1501
lradius 21.8535
lwrist 25.2969
lhand -18.8507 7.81019
lfingers 7.12502
lthumb 7.44927 37.659
rfemur -14.3691 3.58345 17.3563
rtibia 28.9095
rfoot -16.8731 -16.5715
rtoes 3.62671
lfemur 2.62234 -0.299888 -9.25431
ltibia 12.9968
lfoot -23.0209 32.2018
ltoes 9.17192
4714
root -1.67448 16.5555 -3.09126 512.547 -79.6624 -511.724
lowerback 0.245441 8.25974 1.19898
upperback 0.761724 11.0119 -1.02607
thorax 1.07236 5.51731 -1.58948
lowerneck -2.08082 -6.61743 -4.41976
upperneck 30.7614 -12.5058 7.4639
head 11.0316 -5.94298 2.10774
rclavicle -2.00773e-014 2.46493e-014
rhumerus 32.6474 78.4068 -82.2971
rradius 38.3522
rwrist -16.4953
rhand -13.9709 -7.69612
rfingers 7.12502
rthumb 12.1572 -37.3229
lclavicle -2.00773e-014 2.46493e-014
lhumerus -28.6703 -2.23246 74.2999
lradius 22.6483
lwrist 26.1302
lhand -18.8381 8.08958
lfingers 7.12502
lthumb 7.46146 37.938
rfemur -14.5219 3.40496 17.2569
rtibia 28.8439
rfoot -17.3517 -17.0998
rtoes 4.12856
lfemur 1.79099 -0.113007 -9.17273
ltibia 13.1585
lfoot -21.9222 31.5704
ltoes 8.2234
4715
root -1.65851 16.5661 -3.09863 510.265 -80.6148 -509.099
lowerback 0.475338 8.25255 1.29963
upperback 0.90441 11.0027 -0.923093
thorax 1.09022 5.51378 -1.56225
lowerneck -2.02126 -6.9294 -4.54654
upperneck 30.267 -12.9925 7.95005
head 10.9137 -6.1269 2.25324
rclavicle 4.4329e-014 9.54166e-015
rhumerus 38.9581 79.3974 -76.8929
rradius 40.8926
rwrist -19.7597
rhand -11.2751 -8.52854
rfingers 7.12502
rthumb 14.7555 -37.9833
lclavicle 4.4329e-014 9.54166e-015
lhumerus -28.7533 -2.28656 74.4309
lradius 23.4761
lwrist 26.9694
lhand -18.8325 8.23835
lfingers 7.12502
lthumb 7.46687 38.0866
rfemur -14.6768 3.23101 17.1658
rtibia 28.7792
rfoot -17.8645 -17.6488
rtoes 4.63817
lfemur 0.94811 0.123337 -9.08779
ltibia 13.3025
lfoot -20.7902 30.8634
ltoes 7.20837
4716
root -1.64316 16.5767 -3.10559 507.212 -81.5678 -505.695
lowerback 0.670739 8.21922 1.43627
upperback 1.05449 10.9584 -0.820694
thorax 1.14024 5.49321 -1.5484
lowerneck -1.96134 -7.2202 -4.65897
upperneck 29.8045 -13.4535 8.43208
head 10.8092 -6.30038 2.39625
rclavicle 7.76254e-014 -6.36111e-015
rhumerus 46.3985 80.1943 -70.2757
rradius 43.4855
rwrist -22.7087
rhand -8.8507 -9.35427
rfingers 7.12502
rthumb 17.0901 -38.6226
lclavicle 7.76254e-014 -6.36111e-015
lhumerus -28.8824 -2.2743 74.5452
lradius 24.3104
lwrist 27.7615
lhand -18.8309 8.17882
lfingers 7.12502
lthumb 7.46834 38.027
rfemur -14.8238 3.04375 17.088
rtibia 28.7106
rfoot -18.4116 -18.2084
rtoes 5.14952
lfemur 0.0913977 0.400902 -8.99701
ltibia 13.4416
lfoot -19.6594 30.0633
ltoes 6.16457
4717
root -1.62917 16.5872 -3.11221 503.126 -82.5045 -501.261
lowerback 0.839449 8.16724 1.5996
upperback 1.20348 10.889 -0.715741
thorax 1.20731 5.46047 -1.54194
lowerneck -1.89107 -7.4924 -4.75218
upperneck 29.3847 -13.8911 8.89462
head 10.7183 -6.46549 2.53092
rclavicle 1.7662e-013 -7.15625e-015
rhumerus 54.5255 80.752 -62.8854
rradius 46.0851
rwrist -25.1123
rhand -6.82778 -9.96571
rfingers 7.12502
rthumb 19.0365 -39.0541
lclavicle 1.7662e-013 -7.15625e-015
lhumerus -29.063 -2.20628 74.6482
lradius 25.118
lwrist 28.4739
lhand -18.7601 7.85014
lfingers 7.12502
lthumb 7.53667 37.6959
rfemur -14.9537 2.83364 17.0197
rtibia 28.6394
rfoot -18.9895 -18.7638
rtoes 5.64897
lfemur -0.767781 0.728538 -8.90683
ltibia 13.5773
lfoot -18.5311 29.1666
ltoes 5.0749
4718
root -1.61661 16.5973 -3.11867 497.66 -83.3999 -495.447
lowerback 0.977535 8.10006 1.77982
upperback 1.35187 10.799 -0.605802
thorax 1.29187 5.41772 -1.53473
lowerneck -1.81492 -7.7472 -4.82347
upperneck 29.0129 -14.3053 9.32794
head 10.642 -6.62219 2.65345
rclavicle 6.05796e-014 -7.95139e-015
rhumerus 62.9184 81.0691 -55.1416
rradius 48.6685
rwrist -26.8553
rhand -5.30942 -10.2286
rfingers 7.12502
rthumb 20.4961 -39.1668
lclavicle 6.05796e-014 -7.95139e-015
lhumerus -29.2891 -2.11322 74.7626
lradius 25.9007
lwrist 29.1571
lhand -18.6691 7.33427
lfingers 7.12502
lthumb 7.62452 37.1768
rfemur -15.0674 2.60833 16.957
rtibia 28.5681
rfoot -19.608 -19.3087
rtoes 6.16083
lfemur -1.62375 1.09512 -8.82556
ltibia 13.7057
lfoot -17.4241 28.1853
ltoes 3.95596
4719
root -1.60565 16.6068 -3.12504 490.458 -84.2315 -487.907
lowerback 1.11069 8.02194 1.94661
upperback 1.48596 10.6943 -0.491755
thorax 1.3604 5.36733 -1.51738
lowerneck -1.72324 -7.98407 -4.8716
upperneck 28.6999 -14.6952 9.71998
head 10.5805 -6.77092 2.76032
rclavicle 1.28564e-013 -1.98785e-014
rhumerus 71.0774 81.1805 -47.537
rradius 51.2256
rwrist -27.8969
rhand -4.29656 -10.079
rfingers 7.12502
rthumb 21.4692 -38.9093
lclavicle 1.28564e-013 -1.98785e-014
lhumerus -29.5742 -2.00767 74.8969
lradius 26.6598
lwrist 29.8292
lhand -18.5808 6.72722
lfingers 7.12502
lthumb 7.70979 36.5667
rfemur -15.1616 2.36853 16.8778
rtibia 28.5012
rfoot -20.2609 -19.8361
rtoes 6.67979
lfemur -2.46183 1.47617 -8.78027
ltibia 13.8199
lfoot -16.3742 27.1358
ltoes 2.85516
4720
root -1.59585 16.6157 -3.13143 481.024 -84.944 -478.137
lowerback 1.29212 7.94247 2.08596
upperback 1.56431 10.5892 -0.368809
thorax 1.33794 5.31545 -1.48973
lowerneck -1.60604 -8.20781 -4.90861
upperneck 28.4795 -15.0736 10.0663
head 10.5459 -6.91896 2.85119
rclavicle 4.57205e-015 1.07344e-014
rhumerus 78.3846 81.1571 -40.6832
rradius 53.752
rwrist -28.2821
rhand -3.83194 -9.55057
rfingers 7.12502
rthumb 21.9153 -38.3293
lclavicle 4.57205e-015 1.07344e-014
lhumerus -29.9615 -1.94201 75.0733
lradius 27.4073
lwrist 30.5214
lhand -18.5399 6.15231
lfingers 7.12502
lthumb 7.74925 35.9903
rfemur -15.2509 2.13338 16.7883
rtibia 28.4401
rfoot -20.9516 -20.3426
rtoes 7.24102
lfemur -3.28578 1.84685 -8.76796
ltibia 13.9154
lfoot -15.3954 26.0571
ltoes 1.79598
4721
root -1.58622 16.6243 -3.13801 468.973 -85.4757 -465.744
lowerback 1.52938 7.86205 2.21007
upperback 1.58362 10.4854 -0.245523
thorax 1.22094 5.26282 -1.46757
lowerneck -1.4643 -8.4207 -4.93359
upperneck 28.3492 -15.446 10.3728
head 10.5377 -7.06768 2.9277
rclavicle 4.02539e-014 -3.97569e-015
rhumerus 84.7359 81.0427 -34.7
rradius 56.2489
rwrist -28.1162
rhand -3.88244 -8.70981
rfingers 7.12502
rthumb 21.8668 -37.4942
lclavicle 4.02539e-014 -3.97569e-015
lhumerus -30.4254 -1.90647 75.2759
lradius 28.1317
lwrist 31.2173
lhand -18.5139 5.68169
lfingers 7.12502
lthumb 7.77435 35.5188
rfemur -15.3475 1.91368 16.6925
rtibia 28.3868
rfoot -21.6824 -20.8345
rtoes 7.85084
lfemur -4.1024 2.1965 -8.78523
ltibia 13.9874
lfoot -14.4831 24.968
ltoes 0.79014
4722
root -1.57636 16.6325 -3.14491 454.74 -85.7522 -451.163
lowerback 1.81182 7.78396 2.33198
upperback 1.55248 10.3876 -0.124048
thorax 1.02719 5.21196 -1.45693
lowerneck -1.30649 -8.62359 -4.94905
upperneck 28.3002 -15.8137 10.6458
head 10.5547 -7.21642 2.99211
rclavicle 1.9138e-013 7.95139e-015
rhumerus 90.1517 80.8666 -29.5778
rradius 58.7151
rwrist -27.5218
rhand -4.37092 -7.64429
rfingers 7.12502
rthumb 21.3977 -36.4827
lclavicle 1.9138e-013 7.95139e-015
lhumerus -30.8808 -1.77466 75.4585
lradius 28.7222
lwrist 31.7818
lhand -18.5001 5.33697
lfingers 7.12502
lthumb 7.78769 35.1736
rfemur -15.4591 1.72113 16.5988
rtibia 28.34
rfoot -22.4511 -21.3082
rtoes 8.52115
lfemur -4.91282 2.507 -8.82323
ltibia 14.0378
lfoot -13.6597 23.8922
ltoes -0.108789
4723
root -1.56583 16.6406 -3.15198 439.835 -85.7402 -435.9
lowerback 2.11945 7.70663 2.46296
upperback 1.48697 10.2936 -0.0145096
thorax 0.788108 5.16218 -1.46897
lowerneck -1.14364 -8.8184 -4.94912
upperneck 28.3169 -16.1777 10.889
head 10.5929 -7.36396 3.04419
rclavicle 4.08502e-014 8.54774e-015
rhumerus 94.6049 80.6449 -25.3655
rradius 61.1399
rwrist -26.5798
rhand -5.20825 -6.45334
rfingers 7.12502
rthumb 20.5933 -35.381
lclavicle 4.08502e-014 8.54774e-015
lhumerus -31.2905 -1.54917 75.6083
lradius 29.165
lwrist 32.1797
lhand -18.4885 5.16428
lfingers 7.12502
lthumb 7.79889 35.0004
rfemur -15.5909 1.54072 16.5017
rtibia 28.2992
rfoot -23.2332 -21.7619
rtoes 9.199
lfemur -5.72108 2.78003 -8.88635
ltibia 14.0676
lfoot -12.9025 22.8433
ltoes -0.937016
